HIERARCHY
ROOT Hips
{
	OFFSET 0.000000 8.830580 0.000000
	CHANNELS 6 Xposition Yposition Zposition Zrotation Yrotation Xrotation 
	JOINT Spine
	{
		OFFSET 0.000000 0.010000 0.000000
		CHANNELS 3 Zrotation Yrotation Xrotation
		JOINT Spine1
		{
			OFFSET 0.000000 2.459130 0.000000
			CHANNELS 3 Zrotation Yrotation Xrotation
			JOINT Neck
			{
				OFFSET 0.000000 2.484630 0.000000
				CHANNELS 3 Zrotation Yrotation Xrotation
				JOINT Head_virtual
				{
					OFFSET 0.000000 0.000000 0.000000
					CHANNELS 3 Zrotation Yrotation Xrotation
					JOINT Head
					{
						OFFSET 0.000000 0.927525 0.000000
						CHANNELS 3 Zrotation Yrotation Xrotation
						End Site
						{
							OFFSET 0.000000 0.000000 0.000000
						}
					}
				}
				JOINT LeftUpArm_virtual
				{
					OFFSET 0.000000 0.000000 0.000000
					CHANNELS 3 Zrotation Yrotation Xrotation
					JOINT LeftUpArm
					{
						OFFSET 1.248820 0.000000 0.000000
						CHANNELS 3 Zrotation Yrotation Xrotation
						JOINT LeftForeArm
						{
							OFFSET 2.597580 0.000000 0.000000
							CHANNELS 3 Zrotation Yrotation Xrotation
							JOINT LeftHand
							{
								OFFSET 2.455420 0.000000 0.000000
								CHANNELS 3 Zrotation Yrotation Xrotation
								End Site
								{
									OFFSET 0.000000 0.000000 0.000000
								}
							}
						}
					}
				}
				JOINT RightUpArm_virtual
				{
					OFFSET -0.000000 -0.000000 -0.000000
					CHANNELS 3 Zrotation Yrotation Xrotation
					JOINT RightUpArm
					{
						OFFSET -1.248820 -0.000000 -0.000000
						CHANNELS 3 Zrotation Yrotation Xrotation
						JOINT RightForeArm
						{
							OFFSET -2.597580 -0.000000 -0.000000
							CHANNELS 3 Zrotation Yrotation Xrotation
							JOINT RightHand
							{
								OFFSET -2.455420 -0.000000 -0.000000
								CHANNELS 3 Zrotation Yrotation Xrotation
								End Site
								{
									OFFSET 0.000000 0.000000 0.000000
								}
							}
						}
					}
				}
			}
		}
	}
	JOINT LeftUpLeg
	{
		OFFSET 1.271939 0.000000 0.000000
		CHANNELS 3 Zrotation Yrotation Xrotation
		JOINT LeftLowLeg
		{
			OFFSET 0.000000 -4.342910 0.000000
			CHANNELS 3 Zrotation Yrotation Xrotation
			JOINT LeftFoot
			{
				OFFSET 0.000000 -4.487670 0.000000
				CHANNELS 3 Zrotation Yrotation Xrotation
				JOINT LeftToeBase
				{
					OFFSET 0.000000 0.000000 1.515070
					CHANNELS 3 Zrotation Yrotation Xrotation
					End Site
					{
						OFFSET 0.000000 0.000000 0.000000
					}
				}
			}
		}
	}
	JOINT RightUpLeg
	{
		OFFSET -1.271939 0.000000 0.000000
		CHANNELS 3 Zrotation Yrotation Xrotation
		JOINT RightLowLeg
		{
			OFFSET 0.000000 -4.342910 0.000000
			CHANNELS 3 Zrotation Yrotation Xrotation
			JOINT RightFoot
			{
				OFFSET 0.000000 -4.487670 0.000000
				CHANNELS 3 Zrotation Yrotation Xrotation
				JOINT RightToeBase
				{
					OFFSET 0.000000 0.000000 1.515070
					CHANNELS 3 Zrotation Yrotation Xrotation
					End Site
					{
						OFFSET 0.000000 0.000000 0.000000
					}
				}
			}
		}
	}
}
MOTION
Frames: 7
Frame Time: 0.041667
-16.654887 9.317506 35.366017 -173.410060 2.937437 178.256829 4.160566 -1.686682 -23.692093 2.864691 -1.563635 38.849683 0.000000 0.000000 0.000000 -3.384030 -0.892079 -19.372775 6.504829 7.063352 -71.489445 -32.644699 -2.959000 -2.668330 -34.100498 -7.663790 33.772202 0.000000 -32.436699 0.000000 10.764200 6.391980 -0.820848 28.375200 0.375667 2.250060 37.467300 11.209400 20.682100 0.000000 27.730301 0.000000 -4.980030 -1.008880 -6.620080 8.119385 18.629443 8.379753 0.000000 0.000000 0.456247 -4.891399 3.713980 10.679922 0.000000 0.000000 -12.762080 9.460054 10.860210 5.876042 0.000000 0.000000 6.849070 13.666096 -24.980145 10.060520 0.000000 0.000000 -12.402920 
-16.654632 9.317516 35.365891 -173.415029 2.925873 178.253259 4.166024 -1.595553 -23.675639 2.801453 -1.535908 38.826364 0.000000 0.000000 0.000000 -3.325530 -0.889684 -19.245074 6.551768 7.067768 -71.497092 -32.650600 -2.869920 -2.617640 -34.105099 -7.733070 33.413200 0.000000 -32.570400 0.000000 10.860500 6.375940 -0.951103 28.375799 0.301738 2.187310 37.524101 11.014300 21.285500 0.000000 27.913000 0.000000 -5.200180 -0.880442 -6.630510 8.094301 18.503609 8.332950 0.000000 0.000000 0.547150 -4.881930 3.832706 10.628196 0.000000 0.000000 -13.372430 9.424720 10.624002 5.879695 0.000000 0.000000 6.827940 13.571218 -24.805594 10.146512 0.000000 0.000000 -12.445030 
-16.654797 9.317612 35.365740 -173.417742 2.938312 178.248597 4.187838 -1.476710 -23.676144 2.733740 -1.506568 38.847550 0.000000 0.000000 0.000000 -3.309260 -0.901661 -19.178513 6.634808 7.036330 -71.448252 -32.635399 -2.850870 -2.637610 -34.151901 -7.725740 33.085800 0.000000 -32.598301 0.000000 10.942700 6.355610 -1.119020 28.393999 0.240079 2.148810 37.567200 10.902100 21.678900 0.000000 28.000700 0.000000 -5.074040 -0.981047 -6.725640 8.075742 18.413814 8.300306 0.000000 0.000000 0.625762 -4.831410 3.994204 10.582830 0.000000 0.000000 -13.777160 9.401549 10.480546 5.888498 0.000000 0.000000 6.808110 13.476013 -24.693125 10.222258 0.000000 0.000000 -12.469860 
-16.654771 9.317412 35.365807 -173.427394 2.971836 178.243124 4.224094 -1.307036 -23.683239 2.588906 -1.488394 38.884187 0.000000 0.000000 0.000000 -3.246382 -0.904711 -19.118123 6.664219 7.026980 -71.414260 -32.577301 -2.872240 -2.722530 -34.226601 -7.648090 32.734200 0.000000 -32.542000 0.000000 10.934700 6.414860 -1.182410 28.417101 0.254146 2.135730 37.654900 10.795100 22.037300 0.000000 27.943899 0.000000 -4.966190 -0.997482 -6.707430 8.057034 18.373570 8.279451 0.000000 0.000000 0.694239 -4.853292 4.086679 10.549550 0.000000 0.000000 -14.217949 9.357573 10.265955 5.908029 0.000000 0.000000 6.759470 13.368801 -24.493453 10.322933 0.000000 0.000000 -12.511160 
-16.655267 9.317298 35.365717 -173.425445 3.019714 178.219084 4.281241 -1.122118 -23.682819 2.416808 -1.489889 38.955761 0.000000 0.000000 0.000000 -3.194711 -0.902078 -19.082603 6.665809 7.028500 -71.389837 -32.509201 -2.874930 -2.776190 -34.318298 -7.644520 32.394699 0.000000 -32.354099 0.000000 10.926800 6.442590 -1.228360 28.488501 0.278692 2.128590 37.696499 10.746200 22.310900 0.000000 27.817699 0.000000 -4.811070 -1.024220 -6.441960 8.052047 18.318372 8.296876 0.000000 0.000000 0.735714 -4.808546 4.246966 10.503467 0.000000 0.000000 -14.509485 9.372085 10.366213 5.921113 0.000000 0.000000 6.795120 13.380800 -24.538968 10.294104 0.000000 0.000000 -12.521370 
-16.655916 9.317180 35.365616 -173.419041 3.070490 178.190545 4.345168 -0.948184 -23.683842 2.247184 -1.503925 39.062918 0.000000 0.000000 0.000000 -3.200273 -0.883275 -19.109948 6.680755 7.030376 -71.311533 -32.460701 -2.879450 -2.820770 -34.395000 -7.673770 32.091801 0.000000 -32.077999 0.000000 10.873400 6.480360 -1.259220 28.524401 0.313416 2.130920 37.797001 10.770700 22.462700 0.000000 27.558701 0.000000 -4.674130 -1.034240 -6.501970 8.065534 18.357751 8.328365 0.000000 0.000000 0.760224 -4.818917 4.295087 10.475621 0.000000 0.000000 -14.655911 9.401319 10.531768 5.943284 0.000000 0.000000 6.825310 13.375174 -24.643293 10.282181 0.000000 0.000000 -12.565740 
-16.656746 9.316958 35.365421 -173.419919 3.127771 178.164975 4.403267 -0.782942 -23.691047 2.094506 -1.511956 39.180555 0.000000 0.000000 0.000000 -3.222135 -0.871995 -19.181497 6.708847 7.011590 -71.190880 -32.425201 -2.898360 -2.828750 -34.448601 -7.730250 31.903000 0.000000 -31.764700 0.000000 10.849900 6.551230 -1.255890 28.532301 0.338457 2.121300 37.941200 10.852700 22.536301 0.000000 27.182400 0.000000 -4.519500 -1.044610 -6.314330 8.070659 18.387492 8.364603 0.000000 0.000000 0.777737 -4.811016 4.334748 10.454771 0.000000 0.000000 -14.786890 9.430790 10.771704 5.951455 0.000000 0.000000 6.884590 13.476070 -24.790632 10.181517 0.000000 0.000000 -12.546920 
